# xmcd CD database file
#
# Track frame offsets:
#	150
#	44233
#	69103
#	87554
#	125155
#	146991
#	177676
#	204565
#	232794
#	274918
#	304546
#	334413
#
# Disc length: 4766 seconds
#
# Revision: 0
# Processed by: cddbd v1.5.2PL0 Copyright (c) Steve Scherf et al.
# Submitted via: CDex 1.70beta2
#
DISCID=c0129c0c
DTITLE=Blakey, Art and The Jazz Messengers - Caravan and Bhaina's Delight
DYEAR=2013
DGENRE=Jazz
TTITLE0=Caravan
TTITLE1=Sweet 'N' Sour
TTITLE2=In The Wee Small Hours Of The Morning
TTITLE3=This Is For Albert
TTITLE4=Skylark
TTITLE5=Thermo
TTITLE6=Backstage Sally
TTITLE7=Contemplation
TTITLE8=Bu's Delight
TTITLE9=Reincarnation Blues
TTITLE10=Shaky Shake
TTITLE11=Moon River
EXTD=YEAR: 2013
EXTT0=
EXTT1=
EXTT2=
EXTT3=
EXTT4=
EXTT5=
EXTT6=
EXTT7=
EXTT8=
EXTT9=
EXTT10=
EXTT11=
PLAYORDER=
